# xmcd CD database file
#
# Track frame offsets:
#	150
#	53523
#	98125
#	120343
#	139845
#	171948
#	200730
#	234470
#
# Disc length: 3805 seconds
#
# Revision: 0
# Processed by: cddbd v1.5.1PL0 Copyright (c) Steve Scherf et al.
# Submitted via: CDex 1.51
#
DISCID=670edb08
DTITLE=Jackie McLean - McLEAN'S BEST
DYEAR=2005
DGENRE=Jazz
TTITLE0=Alto Madness
TTITLE1=Sentimental Journey
TTITLE2=Old Folks
TTITLE3=Our Love Here to Stay
TTITLE4=Embraceable You
TTITLE5=A Forggy Day
TTITLE6=Gone with the Wind
TTITLE7=Confirmation
EXTD=YEAR: 2005
EXTT0=
EXTT1=
EXTT2=
EXTT3=
EXTT4=
EXTT5=
EXTT6=
EXTT7=
PLAYORDER=
